<?xml version="1.0" encoding="iso-8859-1"?>
<!-- Generator: Adobe Illustrator 19.0.0, SVG Export Plug-In . SVG Version: 6.00 Build 0)  -->
<svg version="1.1" id="Capa_1" xmlns="http://www.w3.org/2000/svg" xmlns:xlink="http://www.w3.org/1999/xlink" x="0px" y="0px"
	 viewBox="0 0 481.28 481.28" style="enable-background:new 0 0 481.28 481.28;" xml:space="preserve">
<g>
	<g>
		<path d="M448,209.92h-2.56v-25.6c0-29.696-22.016-54.272-51.2-58.368V94.72c0-32.256-26.624-58.88-58.88-58.88H62.464
			C28.672,35.84,0.512,62.976,0,97.28v289.28c0,32.256,26.624,58.88,58.88,58.88h327.68c32.256,0,58.88-26.624,58.88-58.88V358.4
			H448c18.432,0,33.28-14.848,33.28-33.28V243.2C481.28,224.768,466.432,209.92,448,209.92z M35.84,98.304
			c0-14.848,12.288-26.624,26.624-26.624h272.384c12.8,0,23.04,10.24,23.04,23.04v30.72H62.464
			C48.128,125.44,35.84,113.152,35.84,98.304z M445.44,322.56h-84.48c-20.992,0-38.4-17.408-38.4-38.4
			c0-20.992,17.408-38.4,38.4-38.4h84.48V322.56z"/>
	</g>
</g>
<g>
	<g>
		<circle cx="371.2" cy="284.16" r="25.6"/>
	</g>
</g>
<g>
</g>
<g>
</g>
<g>
</g>
<g>
</g>
<g>
</g>
<g>
</g>
<g>
</g>
<g>
</g>
<g>
</g>
<g>
</g>
<g>
</g>
<g>
</g>
<g>
</g>
<g>
</g>
<g>
</g>
</svg>
